<?xml version="1.0" encoding="UTF-8"?>
<svg xmlns="http://www.w3.org/2000/svg" xmlns:xlink="http://www.w3.org/1999/xlink" width="3001" height="3001" viewBox="0 0 3001 3001">

<path fill-rule="nonzero" fill="rgb(0%, 0%, 0%)" fill-opacity="1" d="M 1501 750 C 1708.101562 750 1895.609375 833.960938 2031.320312 969.679688 C 2167.039062 1105.398438 2251 1292.898438 2251 1500 C 2251 1707.101562 2167.039062 1894.609375 2031.328125 2030.328125 C 1895.609375 2166.042969 1708.101562 2250 1501 2250 C 1293.898438 2250 1106.390625 2166.042969 970.671875 2030.328125 C 834.949219 1894.609375 751 1707.101562 751 1500 C 751 1292.898438 834.957031 1105.398438 970.679688 969.679688 C 1106.390625 833.960938 1293.898438 750 1501 750 Z M 1999.191406 1001.808594 C 1961.121094 963.75 1918.710938 930.011719 1872.769531 901.421875 L 1852.390625 936.710938 C 1846.121094 947.539062 1832.238281 951.238281 1821.410156 944.96875 C 1810.578125 938.691406 1806.878906 924.808594 1813.160156 913.980469 L 1833.519531 878.71875 C 1740.730469 828.960938 1635.511719 799.371094 1523.730469 795.828125 L 1523.730469 894.808594 C 1523.730469 907.359375 1513.550781 917.539062 1501 917.539062 C 1488.449219 917.539062 1478.269531 907.359375 1478.269531 894.808594 L 1478.269531 795.828125 C 1366.488281 799.371094 1261.269531 828.960938 1168.480469 878.71875 L 1188.839844 913.980469 C 1195.121094 924.808594 1191.421875 938.691406 1180.589844 944.96875 C 1169.761719 951.238281 1155.878906 947.539062 1149.609375 936.710938 L 1129.230469 901.421875 C 1083.28125 930.011719 1040.878906 963.75 1002.808594 1001.808594 C 964.746094 1039.878906 931.011719 1082.300781 902.421875 1128.238281 L 937.710938 1148.609375 C 948.542969 1154.890625 952.238281 1168.769531 945.964844 1179.601562 C 939.691406 1190.429688 925.8125 1194.121094 914.984375 1187.851562 L 879.71875 1167.480469 C 829.957031 1260.269531 800.375 1365.488281 796.832031 1477.269531 L 895.804688 1477.269531 C 908.355469 1477.269531 918.53125 1487.449219 918.53125 1500 C 918.53125 1512.550781 908.355469 1522.730469 895.804688 1522.730469 L 796.832031 1522.730469 C 800.375 1634.53125 829.96875 1739.769531 879.738281 1832.558594 L 915.074219 1812.160156 C 925.902344 1805.929688 939.742188 1809.671875 945.964844 1820.5 C 952.1875 1831.328125 948.453125 1845.171875 937.621094 1851.390625 L 902.390625 1871.730469 C 930.980469 1917.691406 964.726562 1960.109375 1002.808594 1998.191406 C 1040.871094 2036.261719 1083.289062 2069.992188 1129.230469 2098.585938 L 1149.609375 2063.296875 C 1155.878906 2052.464844 1169.761719 2048.765625 1180.589844 2055.039062 C 1191.421875 2061.316406 1195.121094 2075.191406 1188.839844 2086.023438 L 1168.480469 2121.28125 C 1261.269531 2171.035156 1366.480469 2200.625 1478.269531 2204.167969 L 1478.269531 2105.195312 C 1478.269531 2092.644531 1488.449219 2082.46875 1501 2082.46875 C 1513.550781 2082.46875 1523.730469 2092.644531 1523.730469 2105.195312 L 1523.730469 2204.167969 C 1635.511719 2200.625 1740.730469 2171.035156 1833.519531 2121.28125 L 1813.160156 2086.023438 C 1806.878906 2075.191406 1810.578125 2061.316406 1821.410156 2055.039062 C 1832.238281 2048.765625 1846.121094 2052.464844 1852.390625 2063.296875 L 1872.769531 2098.585938 C 1918.71875 2069.992188 1961.128906 2036.261719 1999.191406 1998.191406 C 2037.269531 1960.109375 2071.019531 1917.691406 2099.609375 1871.730469 L 2064.378906 1851.390625 C 2053.550781 1845.171875 2049.808594 1831.328125 2056.03125 1820.5 C 2062.261719 1809.671875 2076.101562 1805.929688 2086.929688 1812.160156 L 2122.261719 1832.550781 C 2172.039062 1739.769531 2201.628906 1634.53125 2205.171875 1522.730469 L 2106.191406 1522.730469 C 2093.640625 1522.730469 2083.46875 1512.550781 2083.46875 1500 C 2083.46875 1487.449219 2093.640625 1477.269531 2106.191406 1477.269531 L 2205.171875 1477.269531 C 2201.628906 1365.488281 2172.039062 1260.269531 2122.28125 1167.480469 L 2087.019531 1187.851562 C 2076.191406 1194.121094 2062.308594 1190.429688 2056.03125 1179.601562 C 2049.761719 1168.769531 2053.460938 1154.890625 2064.289062 1148.609375 L 2099.578125 1128.238281 C 2070.988281 1082.300781 2037.25 1039.878906 1999.191406 1001.808594 Z M 1478.269531 1112.449219 C 1478.269531 1099.898438 1488.449219 1089.730469 1501 1089.730469 C 1513.550781 1089.730469 1523.730469 1099.898438 1523.730469 1112.449219 L 1523.730469 1505.851562 L 1706.179688 1688.300781 C 1715.050781 1697.171875 1715.050781 1711.558594 1706.179688 1720.429688 C 1697.300781 1729.300781 1682.910156 1729.300781 1674.039062 1720.429688 L 1485.320312 1531.710938 C 1480.980469 1527.570312 1478.269531 1521.71875 1478.269531 1515.261719 L 1478.269531 1112.449219 "/>
</svg>
